<svg xmlns="http://www.w3.org/2000/svg" xmlns:xlink="http://www.w3.org/1999/xlink" width="50" height="50" viewBox="0 0 50 50">
  <defs>
    <linearGradient id="linear-gradient" x1="0.5" x2="0.5" y2="1" gradientUnits="objectBoundingBox">
      <stop offset="0" stop-color="#ffd579"/>
      <stop offset="1" stop-color="#806b3d"/>
    </linearGradient>
  </defs>
  <g id="Group_146" data-name="Group 146" transform="translate(-327 -777)">
    <rect id="Rectangle_33" data-name="Rectangle 33" width="50" height="50" rx="15" transform="translate(327 777)" fill="url(#linear-gradient)"/>
    <path id="_14091419251626677034" data-name="14091419251626677034" d="M142.241,122.919a1.121,1.121,0,0,1-2.241,0v-9.514A5.507,5.507,0,0,1,145.6,108H147.4a5.507,5.507,0,0,1,5.6,5.405v9.514a1.121,1.121,0,0,1-2.241,0v-9.514a3.3,3.3,0,0,0-3.362-3.243H145.6a3.3,3.3,0,0,0-3.362,3.243Z" transform="translate(206 686)" fill-rule="evenodd"/>
  </g>
</svg>
