<svg xmlns="http://www.w3.org/2000/svg" xmlns:xlink="http://www.w3.org/1999/xlink" width="50" height="50" viewBox="0 0 50 50">
  <defs>
    <linearGradient id="linear-gradient" x1="0.5" x2="0.5" y2="1" gradientUnits="objectBoundingBox">
      <stop offset="0" stop-color="#01b5af"/>
      <stop offset="1" stop-color="#357d7a"/>
    </linearGradient>
  </defs>
  <g id="Group_148" data-name="Group 148" transform="translate(-327 -927)">
    <rect id="Rectangle_34" data-name="Rectangle 34" width="50" height="50" rx="15" transform="translate(327 927)" fill="url(#linear-gradient)"/>
    <g id="_6530776771621848424" data-name="6530776771621848424" transform="translate(339.99 947.685)">
      <path id="Path_60" data-name="Path 60" d="M19.18,9.631a.838.838,0,0,0,.822-1l-1.3-6.714c0-.007,0-.015,0-.022A2.4,2.4,0,0,0,16.061,0a12.186,12.186,0,0,0-3.23.487c.177-.01.348-.015.51-.015h.025a10.584,10.584,0,0,1,3.738.7l.014.006a1.046,1.046,0,1,1-.809,1.93L16.27,3.1c-.035-.013-.089-.034-.16-.059-.135-.047-.353-.119-.632-.191a8.529,8.529,0,0,0-2.109-.281A5.225,5.225,0,0,0,9.568,4,1.039,1.039,0,0,1,7.993,3.86L.769,7.131A1.308,1.308,0,1,0,1.848,9.514l9.416-4.263a1.317,1.317,0,0,0,.242-.143,17.4,17.4,0,0,1,5.207-1.394,2.583,2.583,0,0,0,.612-.129l1.035,5.367A.838.838,0,0,0,19.18,9.631Z" transform="translate(0 0)"/>
      <path id="Path_61" data-name="Path 61" d="M189.293,4.045a2.353,2.353,0,1,0-2.013,2.65A2.354,2.354,0,0,0,189.293,4.045Z" transform="translate(-165.294 -1.799)"/>
      <path id="Path_62" data-name="Path 62" d="M77.341,9.931a.834.834,0,0,0,.582-.235A5.483,5.483,0,0,1,81.865,8.2a8.737,8.737,0,0,1,2.166.288c.277.072.5.144.649.2.074.026.131.047.167.061l.038.016.006,0a.837.837,0,0,0,.654-1.541h0a10.29,10.29,0,0,0-3.679-.7,7.165,7.165,0,0,0-5.106,1.964.837.837,0,0,0,.582,1.439Z" transform="translate(-68.5 -5.846)"/>
    </g>
  </g>
</svg>
