<svg xmlns="http://www.w3.org/2000/svg" xmlns:xlink="http://www.w3.org/1999/xlink" width="50" height="50" viewBox="0 0 50 50">
  <defs>
    <linearGradient id="linear-gradient" x1="0.5" x2="0.5" y2="1" gradientUnits="objectBoundingBox">
      <stop offset="0" stop-color="#8567e1"/>
      <stop offset="1" stop-color="#433471"/>
    </linearGradient>
  </defs>
  <g id="Group_145" data-name="Group 145" transform="translate(-327 -702)">
    <rect id="Rectangle_32" data-name="Rectangle 32" width="50" height="50" rx="15" transform="translate(327 702)" fill="url(#linear-gradient)"/>
    <g id="_2198534121595759719" data-name="2198534121595759719" transform="translate(341.831 717.097)">
      <g id="Group_144" data-name="Group 144" transform="translate(6.23)">
        <g id="Group_141" data-name="Group 141" transform="translate(4.333 4.333)">
          <path id="Path_63" data-name="Path 63" d="M17.052,7.186a.613.613,0,1,0-.867.867.6.6,0,0,0,.867,0,.6.6,0,0,0,0-.867Z" transform="translate(-16 -7)"/>
        </g>
        <g id="Group_142" data-name="Group 142">
          <path id="Path_64" data-name="Path 64" d="M13.952,0A4.952,4.952,0,1,0,18.9,4.952,4.966,4.966,0,0,0,13.952,0Zm1.857,4.952a1.713,1.713,0,0,1-.186.8l.5.5a.6.6,0,0,1,0,.867.6.6,0,0,1-.867,0l-.5-.5a1.836,1.836,0,0,1-1.609,0l-.5.5a.6.6,0,0,1-.867,0,.6.6,0,0,1,0-.867l.5-.5a1.713,1.713,0,0,1-.186-.8,1.713,1.713,0,0,1,.186-.8l-.5-.5a.613.613,0,1,1,.867-.867l.5.5a1.836,1.836,0,0,1,1.609,0l.5-.5a.613.613,0,1,1,.867.867l-.5.5A1.713,1.713,0,0,1,15.808,4.952Z" transform="translate(-9)"/>
        </g>
        <g id="Group_143" data-name="Group 143" transform="translate(4.333 4.41)">
          <path id="Path_65" data-name="Path 65" d="M16.062,7.419l.124-.186.186-.062a.859.859,0,0,1,.557,0l.186.062.124.186v.248a.372.372,0,0,1-.062.248l-.124.186-.186.062a.859.859,0,0,1-.557,0L16.124,8.1,16,7.914V7.667A.372.372,0,0,1,16.062,7.419Z" transform="translate(-16 -7.125)"/>
        </g>
      </g>
      <path id="Path_66" data-name="Path 66" d="M17.185,16.157l-.743-1.176a13.3,13.3,0,0,1-.867-1.609,5.332,5.332,0,0,1-3.776,2.1v.186a5.04,5.04,0,0,1,1.485,1.733.614.614,0,0,1-.309.8.372.372,0,0,1-.248.062.6.6,0,0,1-.557-.371A3.026,3.026,0,0,0,10.748,16.4a4.44,4.44,0,0,0-1.795-.371H7.715A4.946,4.946,0,0,0,6.6,14.362,5.082,5.082,0,0,0,3.135,13a.6.6,0,0,0-.557.433l-.433,1.362a8.412,8.412,0,0,0,3.837,9.9c.062.062.124.062.248.062h.186a.634.634,0,0,0,.371-.309L7.1,23.77a7.419,7.419,0,0,0,6.375.062L18.237,21.6a.6.6,0,0,0,.371-.557A9.18,9.18,0,0,0,17.185,16.157Z" transform="translate(0 -4.954)"/>
    </g>
  </g>
</svg>
