<svg xmlns="http://www.w3.org/2000/svg" width="62" height="62" viewBox="0 0 62 62">
  <g id="logoipsum-logo-41" transform="translate(144.093 -270.907)">
    <path id="Path_10" data-name="Path 10" d="M38.443,3.782a9.211,9.211,0,0,1,5.177,6.406L45.7,19.793a25.964,25.964,0,0,1,.217,9.887q.208.032.419.053a25.707,25.707,0,0,0,.537-8.627l-1.046-9.766a8.97,8.97,0,0,0-6.265-7.567q-.246-.013-.495-.013Q38.752,3.761,38.443,3.782Zm-.546.052a8.963,8.963,0,0,1,5.46,6.408l2.081,9.605a25.706,25.706,0,0,1,.215,9.787q-.173-.032-.344-.071a25.984,25.984,0,0,0-1.177-10.9L41.039,9.322a9.2,9.2,0,0,0-4.43-5.231A9.2,9.2,0,0,1,37.9,3.834Zm.036-.27q.294-.035.594-.052a9.2,9.2,0,0,0-1.145-.146Q37.66,3.457,37.933,3.564Zm-1.613-.2a9.218,9.218,0,0,1,1.063.286,9.45,9.45,0,0,0-1.119.27,9.523,9.523,0,0,0-1.057-.434q.306-.052.619-.085Q36.074,3.372,36.319,3.36Zm.021-.265a9.487,9.487,0,0,1,3.27.418,9.268,9.268,0,0,1,8.824,9.174v9.82A25.99,25.99,0,0,1,47.4,29.778h8.143a9.28,9.28,0,0,1,9.368,9.189,9.01,9.01,0,0,1-.782,3.681,9.026,9.026,0,0,1-1.1,3.05,9.065,9.065,0,0,1-1.416,2.922,9.111,9.111,0,0,1-1.718,2.758,9.161,9.161,0,0,1-2,2.57,9.219,9.219,0,0,1-2.268,2.35,9.271,9.271,0,0,1-2.505,2.1A9.325,9.325,0,0,1,50.4,60.238a9.377,9.377,0,0,1-2.895,1.546,9.42,9.42,0,0,1-3.045,1.242,9.456,9.456,0,0,1-3.16.923,9.481,9.481,0,0,1-3.242.594,9.493,9.493,0,0,1-3.287.258,9.495,9.495,0,0,1-3.3-.081,9.486,9.486,0,0,1-3.27-.418,9.268,9.268,0,0,1-8.824-9.174V46.94a26.007,26.007,0,0,1,1.572-8.9h-8.68a9.28,9.28,0,0,1-9.368-9.189,9.01,9.01,0,0,1,.781-3.679,9.028,9.028,0,0,1,1.1-3.051A9.065,9.065,0,0,1,6.2,19.2a9.11,9.11,0,0,1,1.721-2.763,9.162,9.162,0,0,1,2-2.567,9.216,9.216,0,0,1,2.266-2.348,9.272,9.272,0,0,1,2.5-2.1,9.326,9.326,0,0,1,2.716-1.836,9.373,9.373,0,0,1,2.9-1.548,9.419,9.419,0,0,1,3.045-1.241,9.453,9.453,0,0,1,3.161-.923,9.478,9.478,0,0,1,3.242-.593,9.492,9.492,0,0,1,3.287-.258A9.5,9.5,0,0,1,36.341,3.094Zm-2.233.084a9.211,9.211,0,0,1,1.155.028q-.3.047-.585.112Q34.395,3.239,34.107,3.178Zm-2.124.057a9.208,9.208,0,0,0-1.151.091q.292.031.582.081Q31.694,3.312,31.983,3.235Zm-.025.281q.3-.083.607-.148.243-.051.486-.088a9.23,9.23,0,0,1,1.088.175,9.42,9.42,0,0,0-1.084.383A9.554,9.554,0,0,0,31.958,3.515ZM30.893,3.6a9.244,9.244,0,0,0-1.1-.063q-.237.062-.474.138-.3.1-.587.209a9.581,9.581,0,0,1,1.126.209A9.382,9.382,0,0,1,30.893,3.6Zm-.663.593a9.14,9.14,0,0,1,1.205-.513A9.294,9.294,0,0,1,32.7,4a9.359,9.359,0,0,0-1.187.672A9.532,9.532,0,0,0,30.23,4.192Zm-.708.093A9.305,9.305,0,0,0,28.227,4.1a9.1,9.1,0,0,0-1.144.634,9.562,9.562,0,0,1,1.33.343A9.314,9.314,0,0,1,29.522,4.284Zm-.816.895a9.05,9.05,0,0,1,1.188-.806,9.268,9.268,0,0,1,1.366.472,9.349,9.349,0,0,0-1.163.986A9.431,9.431,0,0,0,28.706,5.179Zm-.236.2a9.018,9.018,0,0,0-1.094,1.117,9.336,9.336,0,0,1,1.476.882,9.27,9.27,0,0,1,1.053-1.345A9.161,9.161,0,0,0,28.47,5.374Zm-.292-.1a9.285,9.285,0,0,0-1.052,1.1,9.471,9.471,0,0,0-1.453-.507,9,9,0,0,1,1.1-.923A9.292,9.292,0,0,1,28.178,5.276ZM26.7,4.67a9.319,9.319,0,0,1,.979-.6,9.246,9.246,0,0,0-1.1.05q-.23.086-.457.185-.287.126-.562.268A9.6,9.6,0,0,1,26.7,4.67Zm-1.619.173a9.314,9.314,0,0,1,1.307.053,9.266,9.266,0,0,0-1.019.9,9.581,9.581,0,0,0-1.359-.2A9.059,9.059,0,0,1,25.082,4.843ZM25,4.582q.254-.149.521-.284a9.168,9.168,0,0,0-1.107.324Q24.71,4.593,25,4.582Zm-1.559.457a9.233,9.233,0,0,1,1.09-.163,9.271,9.271,0,0,0-.91.693,9.6,9.6,0,0,0-1.145.025q.257-.17.53-.324Q23.225,5.148,23.444,5.039Zm-1.03.281a9.141,9.141,0,0,0-1.066.435q.288-.059.578-.1Q22.164,5.481,22.414,5.32ZM21.492,6a9.24,9.24,0,0,0-.831.783,9.6,9.6,0,0,0-1.136.143q.238-.2.493-.377.2-.144.408-.275A9.212,9.212,0,0,1,21.492,6Zm.541-.088a9.008,9.008,0,0,0-.985.854,9.594,9.594,0,0,1,1.373.065,9.207,9.207,0,0,1,.917-1A9.315,9.315,0,0,0,22.033,5.907Zm1.689-.07a8.945,8.945,0,0,0-.991,1.03,9.5,9.5,0,0,1,1.5.355,9.226,9.226,0,0,1,.929-1.2A9.315,9.315,0,0,0,23.722,5.837Zm1.737.251a8.97,8.97,0,0,0-.969,1.223,9.38,9.38,0,0,1,1.562.726,9.214,9.214,0,0,1,.9-1.446A9.2,9.2,0,0,0,25.459,6.088Zm1.748.616a8.95,8.95,0,0,0-.924,1.471,9.416,9.416,0,0,1,1.267.943l.325.287A9.1,9.1,0,0,1,28.712,7.6,9.065,9.065,0,0,0,27.207,6.7Zm1.719,1.058A8.837,8.837,0,0,0,28.095,9.6l1.738,1.535a8.991,8.991,0,0,1,.57-1.946l-.375-.409A9.083,9.083,0,0,0,28.926,7.762ZM30.6,9.406a8.736,8.736,0,0,0-.532,1.938l4.92,4.345a26.385,26.385,0,0,1,8.054,12.99l.074.041a26.013,26.013,0,0,0-6.392-12.644ZM43.422,28.882a26.271,26.271,0,0,0-6.5-12.982L30.717,9.136A8.882,8.882,0,0,1,31.74,7.394a9.034,9.034,0,0,1,.987,1.125l5.884,7.945a25.911,25.911,0,0,1,4.935,12.48Zm-.242.174-.045-.024q.046.182.089.366l.017.014Q43.212,29.234,43.18,29.056Zm.371.589q-.034-.22-.072-.44l.1.047q.023.221.041.442Zm-.84-1.166a26.129,26.129,0,0,0-7.9-12.593l-4.783-4.224a8.857,8.857,0,0,0-.059,1.026v.8l3.075,2.192a26.511,26.511,0,0,1,9.65,12.789Zm-.553-.685a26.268,26.268,0,0,0-9.273-11.9l-2.917-2.079v1.41l1.138.645A26.658,26.658,0,0,1,42.159,27.794ZM29.7,15.07V13.621l-2.021-1.44a8.866,8.866,0,0,0,.05,1.027l.085.795Zm-1.851-.743L29.7,15.374v1.1q-.249-.115-.5-.225L28,15.728Zm-.323-.487-.065-.6a9.1,9.1,0,0,1-.048-1.243l-1.931-1.376a8.7,8.7,0,0,0-.11,2Zm-2.129-.9,2.163,1.225.154,1.441-1.989-.869-.169-.781A8.888,8.888,0,0,1,25.4,12.938Zm-.3-.476a8.951,8.951,0,0,1,.145-2.02l-.453-.323a9.191,9.191,0,0,0-1.293-.771,8.772,8.772,0,0,0-.424,1.966Zm-2.049-.856,2.068,1.171a9.1,9.1,0,0,0,.18,1.232l.129.594-2.273-.993A8.692,8.692,0,0,1,23.046,11.606Zm-.232-.436a9.035,9.035,0,0,1,.435-1.937,9.146,9.146,0,0,0-1.661-.568A8.868,8.868,0,0,0,21,10.292a9.513,9.513,0,0,1,1.441.665Zm-1.88-.619a9.241,9.241,0,0,1,1.369.634l.484.274a8.947,8.947,0,0,0,.071,2.024l-2.136-.933A8.751,8.751,0,0,1,20.933,10.551Zm-.192-.347a9.133,9.133,0,0,1,.578-1.6,9.253,9.253,0,0,0-1.572-.186,8.877,8.877,0,0,0-.688,1.394A9.446,9.446,0,0,1,20.741,10.2Zm-1.776-.137a9.175,9.175,0,0,1,1.713.395,9.024,9.024,0,0,0-.227,1.971l-.4-.174a9.554,9.554,0,0,0-1.5-.513A8.836,8.836,0,0,1,18.965,10.066Zm-.18-.287a9.127,9.127,0,0,1,.654-1.365,9.321,9.321,0,0,0-1.444.114,8.854,8.854,0,0,0-.751,1.21A9.526,9.526,0,0,1,18.785,9.779Zm-1.676.232a9.26,9.26,0,0,1,1.583.024,9.1,9.1,0,0,0-.4,1.649,9.466,9.466,0,0,0-1.714-.216A8.843,8.843,0,0,1,17.109,10.011Zm-.177-.251A9.1,9.1,0,0,1,17.618,8.6a9.276,9.276,0,0,0-1.261.346,8.9,8.9,0,0,0-.782,1.036A9.582,9.582,0,0,1,16.932,9.76Zm-1.555.539a9.31,9.31,0,0,1,1.424-.261,9.1,9.1,0,0,0-.5,1.424,9.522,9.522,0,0,0-1.538.117A8.781,8.781,0,0,1,15.377,10.3Zm-.177-.226a9.11,9.11,0,0,1,.647-.935,9.124,9.124,0,0,0-.986.486q-.174.17-.34.351-.211.23-.4.469A9.542,9.542,0,0,1,15.2,10.073Zm-1.407.8a9.251,9.251,0,0,1,1.216-.473,9.043,9.043,0,0,0-.557,1.228,9.563,9.563,0,0,0-1.326.355A8.864,8.864,0,0,1,13.792,10.878Zm-.181-.207q.17-.237.358-.467a9,9,0,0,0-.876.737Q13.349,10.8,13.612,10.671ZM12.378,11.71a9.1,9.1,0,0,1,.928-.584,9.073,9.073,0,0,0-.543,1,9.5,9.5,0,0,0-1.035.48q.165-.258.35-.508Q12.223,11.9,12.378,11.71Zm-.824.668a8.935,8.935,0,0,0-.792.822q.238-.168.486-.321Q11.392,12.625,11.553,12.378Zm-.562.985a9.044,9.044,0,0,0-.86.675q-.134.2-.259.414-.157.267-.293.54a9.431,9.431,0,0,1,.978-.583A9.025,9.025,0,0,1,10.992,13.363Zm-.55,1.409a9.176,9.176,0,0,0-1.089.71A8.768,8.768,0,0,0,8.935,16.7a9.48,9.48,0,0,1,1.221-.617A8.989,8.989,0,0,1,10.441,14.772Zm0,1.2a8.731,8.731,0,0,1,.333-1.379,9.264,9.264,0,0,1,1.337-.546,9.046,9.046,0,0,0-.192,1.5A9.489,9.489,0,0,0,10.445,15.972Zm-.326.419a9.211,9.211,0,0,0-1.272.68,8.708,8.708,0,0,0-.185,1.405,9.441,9.441,0,0,1,1.425-.577A9.038,9.038,0,0,1,10.119,16.391Zm.233,1.429a8.774,8.774,0,0,1,.051-1.548,9.2,9.2,0,0,1,1.512-.457,9.072,9.072,0,0,0,.134,1.691A9.453,9.453,0,0,0,10.352,17.82Zm-.244.349a9.185,9.185,0,0,0-1.455.609,8.776,8.776,0,0,0,.114,1.545,9.425,9.425,0,0,1,1.655-.486A9.089,9.089,0,0,1,10.108,18.169Zm.579,1.619a8.823,8.823,0,0,1-.317-1.7,9.179,9.179,0,0,1,1.728-.323,9.058,9.058,0,0,0,.61,1.891h-.434A9.622,9.622,0,0,0,10.688,19.789Zm-.189.3a9.164,9.164,0,0,0-1.684.5A8.913,8.913,0,0,0,13.2,26.645l8.669,4.91A8.492,8.492,0,0,1,23.554,32.8q.15-.232.3-.462a8.166,8.166,0,0,0-1.827-1.794l-8.1-5.772A9.157,9.157,0,0,1,10.5,20.091ZM24.017,32.108a8.433,8.433,0,0,0-1.828-1.774l-8.1-5.772a8.894,8.894,0,0,1-3.324-4.518,9.33,9.33,0,0,1,1.509-.122h.558a9.178,9.178,0,0,0,2.181,2.855l7.439,6.571A8.105,8.105,0,0,1,24.3,31.711Q24.155,31.908,24.017,32.108Zm.007.466q-.14.209-.275.421.066.068.131.137.116-.212.235-.423C24.085,32.663,24.054,32.618,24.024,32.573Zm.24-.123-.079-.114q.121-.177.245-.352l.048.105Q24.369,32.269,24.263,32.45Zm.013.516q-.1.187-.206.376l.091.105q.086-.191.175-.381Zm.2-.191-.046-.075q.089-.154.18-.308l.024.061Q24.552,32.615,24.474,32.775Zm.023.579q-.074.162-.146.324l.054.069q.06-.168.123-.335Zm.157-.272-.016-.029q.06-.126.121-.252l0,.008Q24.707,32.946,24.654,33.082Zm.037.663q-.048.131-.094.263l.019.027q.038-.141.078-.282Zm-.165.631-.037-.055q-.057.169-.111.338l.061.063Q24.482,34.55,24.526,34.377Zm.133.586q.032-.136.065-.271l0,.007q-.025.144-.048.289Zm-.293.073-.079-.085q-.063.2-.123.41l.111.085Q24.319,35.24,24.366,35.035Zm.145.6q.036-.174.075-.348l.042.051q-.026.177-.049.354Zm-.295.1-.129-.1q-.067.242-.129.484l.168.09Q24.168,35.972,24.216,35.736Zm.157.616q.037-.21.078-.42l.087.077q-.025.208-.046.416Zm-.3.134q-.092-.052-.186-.1-.07.282-.132.566.116.039.232.08Q24.031,36.757,24.077,36.486Zm.171.641q.036-.248.077-.495l.139.087q-.022.24-.04.48Zm-.3.17q-.124-.046-.25-.088-.07.329-.13.66.151.023.3.051Q23.909,37.608,23.952,37.3Zm.186.676q.033-.288.071-.576.1.04.2.083-.017.275-.028.549Q24.258,38,24.138,37.973Zm-.293.21q-.159-.03-.32-.054a25.724,25.724,0,0,0,.928,12.5l2.579,7.787a8.95,8.95,0,0,0,4.542,5.2,9.143,9.143,0,0,0,1.333-.546,9.2,9.2,0,0,1-3.471-3.98l-3.395-7.48A26.016,26.016,0,0,1,23.845,38.182Zm9.334,24.743a8.938,8.938,0,0,1-3.5-3.945L26.287,51.5A25.756,25.756,0,0,1,24.11,38.237q.129.029.257.062a26.069,26.069,0,0,0,3.6,14.02l4.173,7.091a9.221,9.221,0,0,0,2.342,2.647A9.127,9.127,0,0,1,33.179,62.926Zm-.007.3a9.428,9.428,0,0,1-1.252.547,9.281,9.281,0,0,0,1.226.447,9.177,9.177,0,0,0,1.253-.387A9.481,9.481,0,0,1,33.172,63.231Zm1.581.461a9.227,9.227,0,0,1-1.308-.61,9.4,9.4,0,0,0,1.262-.861,9.38,9.38,0,0,0,1.314.791A9.108,9.108,0,0,1,34.753,63.691Zm.008.285a9.453,9.453,0,0,1-1.084.383,9.249,9.249,0,0,0,1.088.175q.243-.038.487-.088.308-.064.606-.147A9.585,9.585,0,0,1,34.761,63.976Zm1.62.16a9.279,9.279,0,0,1-1.267-.319,9.379,9.379,0,0,0,1.187-.672,9.524,9.524,0,0,0,1.285.477A9.14,9.14,0,0,1,36.381,64.136Zm.022.272q-.28.094-.569.171a9.235,9.235,0,0,0,1.15-.091Q36.692,64.457,36.4,64.408Zm1.621-.129a9.237,9.237,0,0,1-1.1-.063,9.365,9.365,0,0,0,1.037-.492,9.59,9.59,0,0,0,1.125.209q-.288.113-.587.209Q38.262,64.217,38.024,64.279Zm1.067-.065a9.184,9.184,0,0,0,1.135-.208q-.294,0-.587-.02Q39.371,64.107,39.091,64.214Zm1.045-.473a9.226,9.226,0,0,0,1.1-.05q.23-.086.457-.185.287-.126.562-.268a9.635,9.635,0,0,1-1.141-.092A9.364,9.364,0,0,1,40.137,63.741Zm1.29-.823a9.31,9.31,0,0,0,1.307.053,9.061,9.061,0,0,0,1.07-.748,9.593,9.593,0,0,1-1.359-.2A9.26,9.26,0,0,1,41.426,62.918Zm.716-.973a9.016,9.016,0,0,1-1.1.923,9.3,9.3,0,0,1-1.409-.329,9.287,9.287,0,0,0,1.052-1.1A9.463,9.463,0,0,0,42.142,61.945Zm.515-.151a9.326,9.326,0,0,0,1.437.183,8.951,8.951,0,0,0,.991-1.03,9.5,9.5,0,0,1-1.5-.354A9.219,9.219,0,0,1,42.657,61.794Zm.668-1.29a8.97,8.97,0,0,1-.969,1.223,9.205,9.205,0,0,1-1.5-.5,9.216,9.216,0,0,0,.9-1.445A9.367,9.367,0,0,0,43.325,60.5Zm.407-.142a9.247,9.247,0,0,0,1.543.346,8.924,8.924,0,0,0,.833-1.315,9.429,9.429,0,0,1-1.631-.561A9.166,9.166,0,0,1,43.731,60.362Zm.5-1.644a8.908,8.908,0,0,1-.762,1.557,9.117,9.117,0,0,1-1.591-.735,9.052,9.052,0,0,0,.64-1.881l.351.25A9.484,9.484,0,0,0,44.233,58.718Zm.334-.136a9.152,9.152,0,0,0,1.661.568,8.88,8.88,0,0,0,.592-1.627,9.517,9.517,0,0,1-1.442-.665L45,56.645A9.026,9.026,0,0,1,44.566,58.582Zm.18-2.081a8.766,8.766,0,0,1-.425,1.966,9.21,9.21,0,0,1-1.295-.772l-.45-.321a8.954,8.954,0,0,0,.146-2.02Zm.283-.145.483.274a9.232,9.232,0,0,0,1.369.634,8.741,8.741,0,0,0,.213-2l-2.136-.933A8.954,8.954,0,0,1,45.03,56.356ZM44.666,54.2a8.692,8.692,0,0,1,.1,2L42.7,55.039a9.1,9.1,0,0,0-.18-1.234l-.128-.592Zm.241-.184,2.18.952a8.708,8.708,0,0,0-.317-1.983l-2.365-.754.191.576A9.148,9.148,0,0,1,44.907,54.021Zm-.818-1.885.251.758a8.867,8.867,0,0,1,.267,1l-2.281-1-.307-1.418.034.011Zm.213-.209,2.375.757a8.9,8.9,0,0,0-.372-.963l-.331-.729-2.094-.437-.036-.008Zm-.761-1.444.445,1.344-1.85-.59-.182-.059L41.7,50.006Q42.609,50.275,43.541,50.482Zm.208-.225.188.04,1.9.4L45.254,49.4q-.949-.11-1.882-.285Zm-.679-1.2.374,1.129q-.915-.209-1.808-.478l-.224-1.034Q42.233,48.894,43.07,49.061Zm.207-.229q.916.176,1.849.29l-.492-1.085q-.85-.079-1.69-.211Zm-.632-1.053.329.993q-.82-.168-1.625-.385l-.2-.9Q41.895,47.652,42.646,47.779Zm.205-.234q.824.133,1.658.216l-1.6-3.52a8.2,8.2,0,0,1-.585-4.962l-.04.047a7.943,7.943,0,0,0-.27,5.7Zm-.141-8.736a7.945,7.945,0,0,0,.447,5.325l1.659,3.656q.93.081,1.87.1l-2.724-4.628a8.224,8.224,0,0,1-1.129-4.61Zm.424-.547A7.96,7.96,0,0,0,44.2,43.129L47,47.892h2.137L44.9,42.179a8.256,8.256,0,0,1-1.591-4.157Zm.424-.577a7.99,7.99,0,0,0,1.564,4.339l4.347,5.87h2.5a9.052,9.052,0,0,0-.657-.8l-5.585-6.085a8.3,8.3,0,0,1-1.95-3.631Q43.668,37.53,43.558,37.684Zm.424-.612a8.03,8.03,0,0,0,1.943,3.757l5.585,6.085a9.309,9.309,0,0,1,.785.979h2.387a8.925,8.925,0,0,0-2.062-2.66l-6.2-5.479A8.351,8.351,0,0,1,44.228,36.7Q44.107,36.886,43.982,37.073Zm.126-.681q-.1.153-.2.3l0-.021q.093-.165.183-.33Zm.3.029A8.084,8.084,0,0,0,46.6,39.559l6.2,5.479a9.179,9.179,0,0,1,2.181,2.856h.559a9.343,9.343,0,0,0,1.509-.122,8.894,8.894,0,0,0-3.324-4.518L46.971,38.44a8.409,8.409,0,0,1-2.3-2.458Q44.543,36.2,44.406,36.42Zm.116-.7q-.114.192-.232.382l-.026-.079q.1-.2.206-.4Zm.31,0a8.14,8.14,0,0,0,2.3,2.506l6.752,4.813a9.157,9.157,0,0,1,3.433,4.684,9.16,9.16,0,0,0,1.685-.5,8.912,8.912,0,0,0-4.388-6.055l-7.228-4.094a8.473,8.473,0,0,1-2.262-1.861Q44.979,35.469,44.832,35.721Zm.106-.727q-.127.23-.259.457l-.063-.12q.113-.231.222-.464Zm.321-.029a8.2,8.2,0,0,0,2.259,1.883l7.228,4.094a9.176,9.176,0,0,1,4.507,6.177,9.122,9.122,0,0,0,1.383-.755,8.934,8.934,0,0,0-5.363-7.356l-7.625-3.33a8.53,8.53,0,0,1-2.082-1.292Q45.416,34.677,45.259,34.965Zm.1-.761q-.137.269-.28.535-.057-.073-.112-.148.12-.265.234-.532Q45.277,34.132,45.357,34.2Zm.332-.063a8.266,8.266,0,0,0,2.068,1.3l7.625,3.33a9.2,9.2,0,0,1,5.507,7.423,9.1,9.1,0,0,0,1.1-.924,8.947,8.947,0,0,0-6.29-8.477l-7.938-2.53a8.6,8.6,0,0,1-1.751-.782Q45.853,33.81,45.688,34.141Zm.09-.806q-.144.313-.3.621-.087-.079-.171-.162.125-.3.243-.608Q45.664,33.263,45.778,33.335Zm.341-.1a8.312,8.312,0,0,0,1.723.774l7.938,2.53a9.218,9.218,0,0,1,6.471,8.456,8.993,8.993,0,0,0,.812-1.006,8.953,8.953,0,0,0-7.179-9.449l-8.164-1.7a8.613,8.613,0,0,1-1.27-.368Q46.291,32.853,46.12,33.233Zm.082-.864q-.15.363-.312.722-.122-.078-.241-.16.129-.346.248-.695Q46.048,32.306,46.2,32.37Zm.35-.147a8.378,8.378,0,0,0,1.226.355l8.164,1.7a9.229,9.229,0,0,1,7.418,9.253,8.856,8.856,0,0,0,.506-.96q.039-.239.065-.482a8.97,8.97,0,0,0-8.1-9.81l-8.3-.856q-.324-.033-.642-.09Q46.729,31.782,46.551,32.223Zm.072-.94q-.154.424-.322.842-.162-.066-.32-.14.13-.4.248-.8Q46.425,31.24,46.623,31.283Zm.356-.2q.288.05.58.08l8.3.856a9.247,9.247,0,0,1,8.379,9.571,8.766,8.766,0,0,0,.4-2.623,9.014,9.014,0,0,0-9.1-8.926H47.318Q47.16,30.566,46.979,31.082Zm.059-1.042q-.153.5-.325.991-.207-.043-.41-.1.129-.457.242-.918Q46.79,30.036,47.038,30.04Zm.079-.263a25.733,25.733,0,0,0,1.049-7.271v-9.82a8.979,8.979,0,0,0-7.549-8.8,9.2,9.2,0,0,1,5.477,7.423l1.046,9.766a25.966,25.966,0,0,1-.534,8.678Q46.861,29.775,47.117,29.778Zm-.843.215q-.2-.022-.4-.052-.074.409-.162.817.166.056.334.106Q46.167,30.43,46.274,29.993Zm-.3,1.124q-.16-.047-.318-.1-.081.359-.172.716.127.069.257.134Q45.859,31.494,45.97,31.117Zm-.318,1q-.122-.06-.241-.124-.084.316-.177.63.093.073.188.143Q45.542,32.447,45.653,32.121Zm-.327.907q-.087-.063-.172-.129-.085.277-.176.553.063.069.127.136Q45.218,33.31,45.326,33.028Zm-.332.828-.113-.116q-.083.242-.171.483l.076.113Q44.892,34.1,44.993,33.857Zm-.336.764-.062-.089q-.079.209-.162.417l.035.076Q44.564,34.823,44.657,34.621Zm-.34.711-.022-.045q-.073.174-.147.348l.006.021Q44.236,35.494,44.317,35.331Zm-.033-.737q.065-.169.128-.339l-.027-.043q-.053.181-.109.361Zm.2-.732.043.072q.075-.21.146-.421l-.072-.082Q44.546,33.648,44.485,33.862Zm-.095-.686q-.045.175-.091.349l-.01-.02q.036-.184.07-.369Zm.293-.062.088.105q.08-.249.156-.5l-.125-.1Q44.745,32.865,44.684,33.114Zm-.111-.7q-.048.217-.1.433l-.05-.067q.037-.22.07-.44Zm.3-.092.141.122q.084-.289.16-.58-.093-.054-.186-.111Q44.929,32.037,44.868,32.321ZM44.74,31.6q-.048.257-.1.513l-.1-.1q.035-.254.065-.508Zm.3-.125q.1.063.2.123.084-.333.159-.669-.128-.048-.253-.1Q45.094,31.15,45.036,31.472Zm-.147-.754q-.045.3-.1.594l-.153-.107q.031-.289.055-.577Q44.791,30.674,44.889,30.718Zm.3-.16q.134.056.27.108.082-.384.152-.77-.164-.031-.327-.067Q45.238,30.194,45.185,30.558Zm-.168-.794q-.039.341-.087.682-.108-.049-.214-.1.024-.326.039-.652Q44.885,29.73,45.017,29.764Zm.029-.265a25.726,25.726,0,0,0-1.169-10.756L40.783,9.4a8.949,8.949,0,0,0-4.541-5.2,9.141,9.141,0,0,0-1.333.546,9.2,9.2,0,0,1,3.471,3.98L42.451,17.7A26.027,26.027,0,0,1,44.766,29.42Q44.905,29.462,45.046,29.5Zm-.546-.165A25.768,25.768,0,0,0,42.206,17.8L38.134,8.833a8.939,8.939,0,0,0-3.5-3.944,9.13,9.13,0,0,0-1.306.869A9.218,9.218,0,0,1,35.672,8.4l5.005,8.5a26.089,26.089,0,0,1,3.6,12.346Q44.388,29.3,44.5,29.334Zm-.011.275q-.1-.034-.2-.07.007.29.007.58l.164.091Q44.476,29.91,44.489,29.609Zm-.055.889-.144-.077q0,.256-.011.512l.108.085Q44.413,30.759,44.434,30.5Zm-.079.829-.087-.065q-.01.222-.023.445l.057.062Q44.33,31.548,44.355,31.327Zm-.1.779-.035-.036q-.014.187-.031.374l.012.019Q44.23,32.284,44.255,32.106Zm-.264-.691q.009-.18.015-.361l-.039-.033q.006.188.01.376Zm-.038-.757.063.056q0-.222.006-.444l-.094-.056Q43.943,30.435,43.953,30.658Zm-.306-.624q.013.18.023.36l-.016-.016q-.023-.186-.05-.373Zm.259-.148.117.074q0-.261-.009-.522l-.152-.062Q43.886,29.631,43.905,29.886Zm-.075-.811.173.073a25.83,25.83,0,0,0-3.559-12.107l-5.005-8.5A8.953,8.953,0,0,0,33.12,5.932,9.052,9.052,0,0,0,31.9,7.182a9.306,9.306,0,0,1,1.04,1.181l5.884,7.944A26.17,26.17,0,0,1,43.831,29.075ZM31.708,7A9.315,9.315,0,0,1,32.9,5.77a9.126,9.126,0,0,0-1.358-.8,9.061,9.061,0,0,0-1.207,1A9.281,9.281,0,0,1,31.708,7Zm-.164.21a9.014,9.014,0,0,0-1.4-1.044,9,9,0,0,0-1.076,1.368A9.369,9.369,0,0,1,30.227,8.6l.292.318A9.148,9.148,0,0,1,31.544,7.21ZM31.8,4.8a9.391,9.391,0,0,1,1.314.792,9.4,9.4,0,0,1,1.262-.861,9.221,9.221,0,0,0-1.308-.61A9.1,9.1,0,0,0,31.8,4.8Zm1.62-.825a9.481,9.481,0,0,1,1.228.607A9.406,9.406,0,0,1,35.9,4.037,9.257,9.257,0,0,0,34.67,3.59,9.187,9.187,0,0,0,33.417,3.977Zm8.049,23.01A26.421,26.421,0,0,0,30.972,16.095l-1-.568V16.6A26.791,26.791,0,0,1,41.465,26.987Zm-.776-.733A26.549,26.549,0,0,0,29.968,16.9v.924A26.9,26.9,0,0,1,40.689,26.254ZM29.7,17.7v-.935q-.3-.141-.61-.275l-1.058-.462.115,1.07Q28.934,17.38,29.7,17.7Zm-1.522-.311q.772.277,1.522.6v.817q-.7-.267-1.424-.5ZM27.865,17l-.118-1.1-1.952-.853.3,1.379,1.249.4Q27.605,16.916,27.865,17Zm-1.707-.272,1.1.351q.32.1.636.212l.1.93q-.8-.244-1.609-.44Zm-.36-.392-.307-1.418-2.283-1a8.848,8.848,0,0,0,.267.995l.252.76Zm-1.969-.35,2.033.648.234,1.079q-.268-.061-.537-.118l-1.285-.268Zm-.419-.411L23.22,15a9.131,9.131,0,0,1-.31-1.207l-2.181-.952a8.708,8.708,0,0,0,.317,1.983Zm-2.273-.447,2.376.757.457,1.378-2.13-.444-.331-.729A8.911,8.911,0,0,1,21.138,15.132Zm-.4-.4a8.963,8.963,0,0,1-.286-2.005l-.511-.223a9.282,9.282,0,0,0-1.429-.49,8.752,8.752,0,0,0,0,2.01Zm-2.185-.419,2.27.724a9.167,9.167,0,0,0,.438,1.169l.252.554-2.433-.507A8.719,8.719,0,0,1,18.556,14.309Zm-.319-.379a9.016,9.016,0,0,1,.015-1.983,9.2,9.2,0,0,0-1.746-.217,8.832,8.832,0,0,0-.234,1.712,9.586,9.586,0,0,1,1.55.356Zm-1.971-.222a9.3,9.3,0,0,1,1.473.341l.532.17a8.983,8.983,0,0,0,.5,1.965l-2.288-.477A8.756,8.756,0,0,1,16.266,13.707Zm-.262-.3a9.076,9.076,0,0,1,.227-1.681,9.253,9.253,0,0,0-1.577.139,8.809,8.809,0,0,0-.378,1.5A9.477,9.477,0,0,1,16,13.407Zm-1.766.228a9.2,9.2,0,0,1,1.76.037,9.017,9.017,0,0,0,.2,1.974l-.426-.089a9.6,9.6,0,0,0-1.58-.2A8.813,8.813,0,0,1,14.238,13.635ZM14,13.39a9.053,9.053,0,0,1,.35-1.468,9.283,9.283,0,0,0-1.388.406,8.762,8.762,0,0,0-.478,1.336A9.515,9.515,0,0,1,14,13.39Zm-1.59.568a9.258,9.258,0,0,1,1.553-.3,9.073,9.073,0,0,0-.046,1.7,9.477,9.477,0,0,0-1.722.138A8.783,8.783,0,0,1,12.411,13.959Zm-.225,1.8a8.813,8.813,0,0,0,.134,1.723,9.623,9.623,0,0,1,1.592.032l.432.045a9.038,9.038,0,0,1-.405-1.943A9.2,9.2,0,0,0,12.185,15.763Zm2.024-.136a8.776,8.776,0,0,0,.428,1.966l2.326.24a9.012,9.012,0,0,1-.7-1.9l-.547-.114A9.34,9.34,0,0,0,14.21,15.627Zm2.341.363a8.76,8.76,0,0,0,.73,1.875l2.474.255-.309-.525a9.187,9.187,0,0,1-.56-1.117Zm2.656.554a8.961,8.961,0,0,0,.472.919l.407.691,2.166.223-.6-1.324Zm2.769.577.584,1.288,1.307.135q.274.028.546.062l-.347-1.049Zm2.394.5.339,1.024q.83.111,1.648.273l-.2-.915q-.326-.077-.655-.145Zm2.079.451.2.9q.741.154,1.469.348l-.087-.812Q27.246,18.268,26.449,18.071Zm1.858.528.086.8q.66.183,1.307.4v-.7Q29.011,18.827,28.306,18.6Zm1.662.6v.691a27.1,27.1,0,0,1,8.945,5.145A26.76,26.76,0,0,0,29.968,19.2Zm7.97,5.37a26.859,26.859,0,0,0-7.97-4.4v.586A27.2,27.2,0,0,1,37.938,24.567ZM29.7,20.676v-.6q-.633-.212-1.277-.394l.074.687Q29.1,20.508,29.7,20.676Zm-1.173-.03q.591.139,1.173.3v1.556A7.989,7.989,0,0,1,28,27.422a8.212,8.212,0,0,0,.773-4.449Zm-.307-.341-.075-.7q-.713-.193-1.438-.347l.17.786Q27.551,20.158,28.219,20.305Zm-1.283.016q.66.114,1.312.261L28.507,23a7.963,7.963,0,0,1-1.165,5.063,8.2,8.2,0,0,0,.3-4.5ZM26.591,20l-.173-.8q-.8-.161-1.616-.275l.291.878Q25.846,19.878,26.591,20Zm-1.408.079q.738.079,1.467.2l.724,3.341a7.947,7.947,0,0,1-.609,5.133l-.008.008a8.2,8.2,0,0,0-.19-4.5Zm-.383-.3-.295-.889q-.332-.042-.666-.077l-1.153-.119.446.983Q23.97,19.7,24.8,19.773Zm-1.546.166q.822.029,1.636.108l1.423,4.295a7.94,7.94,0,0,1,.054,4.83l-.09.1a8.21,8.21,0,0,0-.7-4.2Zm-.419-.275-.457-1.007-2.126-.219.719,1.221h1.315Q22.561,19.657,22.835,19.663Zm-1.709.258h1.16q.336,0,.67.008l2.379,5.242a7.949,7.949,0,0,1,.628,4.446l-.146.167a8.232,8.232,0,0,0-1.133-3.818Zm-.466-.264L19.922,18.4l-2.485-.256a8.994,8.994,0,0,0,.567.865l.478.646Zm-1.982.264h2.138L24.451,26.1a7.969,7.969,0,0,1,1.1,3.992l-.189.227a8.268,8.268,0,0,0-1.478-3.362Zm-.528-.264-.363-.491a9.237,9.237,0,0,1-.676-1.054l-2.374-.245a8.8,8.8,0,0,0,.926,1.79Zm-2.3.264h2.5l5.325,7.19a8,8,0,0,1,1.472,3.483q-.112.14-.223.282A8.315,8.315,0,0,0,23.2,28.022l-6.7-7.3A9.069,9.069,0,0,1,15.847,19.921Zm-.5-.264a9.05,9.05,0,0,1-.9-1.82l-.555-.057a9.346,9.346,0,0,0-1.514-.033A8.8,8.8,0,0,0,13,19.657Zm-2.21.264h2.387a9.323,9.323,0,0,0,.785.979L23,28.2a8.047,8.047,0,0,1,1.721,2.934q-.128.168-.252.338a8.376,8.376,0,0,0-1.838-2.318l-7.439-6.571A8.92,8.92,0,0,1,13.132,19.921ZM24.608,31.736l.038.079q.095-.152.191-.3l-.018-.064Q24.713,31.591,24.608,31.736Zm.413-.553.01.032q.081-.123.164-.245V30.96Zm-.094.688-.147.238.013.031q.067-.13.136-.26Zm-.069,3.758q-.019.139-.036.277l.024.022q.008-.146.017-.293Zm-.028.652-.047-.046q-.02.176-.037.353l.073.049Q24.823,36.458,24.83,36.28Zm.254.545q0-.139.006-.279l.006.006q.006.146.014.292Zm-.271.131-.095-.067q-.018.213-.033.426l.126.06Q24.811,37.166,24.813,36.956Zm.268.555q0-.178,0-.355l.052.041q.012.178.027.356Zm-.267.16-.147-.072q-.014.25-.024.5l.183.054Q24.818,37.913,24.814,37.672Zm.284.57q-.008-.213-.013-.427l.1.057q.02.208.043.416Zm-.261.192q-.1-.032-.2-.062A25.811,25.811,0,0,0,28.2,52.187l4.173,7.091a8.954,8.954,0,0,0,2.32,2.606,9.054,9.054,0,0,0,1.215-1.25A9.3,9.3,0,0,1,34.87,59.45l-4.906-6.624A26.145,26.145,0,0,1,24.837,38.434ZM36.076,60.422a9.032,9.032,0,0,1-.988-1.126l-4.906-6.624a25.887,25.887,0,0,1-5.071-14.145l.154.057A26.24,26.24,0,0,0,32,53.127l5.1,5.554A8.881,8.881,0,0,1,36.076,60.422Zm.032.394a9.331,9.331,0,0,1-1.191,1.229,9.117,9.117,0,0,0,1.358.8,9.071,9.071,0,0,0,1.206-1A9.278,9.278,0,0,1,36.108,60.816Zm1.565.833a9.018,9.018,0,0,1-1.4-1.044A9.148,9.148,0,0,0,37.3,58.9l.29.316a9.359,9.359,0,0,0,1.163,1.07A9,9,0,0,1,37.673,61.649Zm.045.335a9.354,9.354,0,0,1-1.163.985,9.274,9.274,0,0,0,1.366.472,9.039,9.039,0,0,0,1.188-.805A9.431,9.431,0,0,1,37.719,61.984Zm1.627.457a9.186,9.186,0,0,1-1.436-.653,9.268,9.268,0,0,0,1.053-1.344,9.334,9.334,0,0,0,1.476.881A9.026,9.026,0,0,1,39.346,62.441Zm1.263-1.329a8.946,8.946,0,0,0,.924-1.47,9.4,9.4,0,0,1-1.27-.945l-.322-.284a9.1,9.1,0,0,1-.837,1.805A9.056,9.056,0,0,0,40.609,61.111ZM38.89,60.054a8.835,8.835,0,0,0,.832-1.836l-1.738-1.535a8.987,8.987,0,0,1-.57,1.946l.372.406A9.1,9.1,0,0,0,38.89,60.054Zm-1.676-1.643a8.729,8.729,0,0,0,.533-1.938L34.06,53.217a26.349,26.349,0,0,1-8.4-14.473L25.55,38.7A25.98,25.98,0,0,0,32.2,52.951ZM25.513,38.4l.082.034q-.033-.175-.065-.351l-.056-.036Q25.493,38.22,25.513,38.4Zm-.071-.683.029.017q-.023-.144-.045-.289l-.007-.006Q25.43,37.575,25.443,37.714Zm.4.573q.026.137.053.274l.031.014q-.039-.141-.076-.283Zm.18.628-.06-.03A26.092,26.092,0,0,0,34.24,53.021l3.55,3.135a8.847,8.847,0,0,0,.06-1.029v-.8L36.117,53.1A26.474,26.474,0,0,1,26.022,38.915ZM37.849,54l-1.574-1.122a26.216,26.216,0,0,1-9.922-13.793l.008,0a26.6,26.6,0,0,0,11.488,13.5Zm.269.518v.605a9.094,9.094,0,0,1-.085,1.244l1.774,1.567a8.716,8.716,0,0,0,.323-1.982Zm2.021,1.114L38.118,54.2v-1.45l.032.018L40,53.814l.085.793A8.843,8.843,0,0,1,40.139,55.636Zm.25.5a8.961,8.961,0,0,1-.36,1.994l.413.365a9.164,9.164,0,0,0,1.206.9,8.8,8.8,0,0,0,.632-1.912ZM42.335,57.2,40.4,55.825a9.088,9.088,0,0,0-.048-1.246l-.064-.6,2.153,1.22A8.707,8.707,0,0,1,42.335,57.2Zm.085-2.323a8.848,8.848,0,0,0-.16-1.018l-.169-.78-1.956-.854-.033-.014.155,1.442ZM39.969,53.49l-.151-1.405q-.868-.392-1.7-.841v1.2l.166.1Zm-2.12-1.206V51.1A26.69,26.69,0,0,1,26.917,39.763,26.35,26.35,0,0,0,37.849,52.284ZM27.581,40.452A26.445,26.445,0,0,0,37.849,50.793V49.749A26.792,26.792,0,0,1,27.581,40.452Zm10.537,9.434v1.057q.816.446,1.668.837l-.126-1.18Q38.876,50.265,38.118,49.886Zm1.509.411q-.767-.331-1.509-.708v-.922q.689.315,1.4.591Zm.315.42.128,1.19.175.077,1.777.776-.3-1.382Q40.818,51.078,39.942,50.717Zm1.715.361q-.888-.3-1.748-.661L39.8,49.366q.794.3,1.609.551Zm-.316-1.458L41.121,48.6q-.734-.2-1.453-.444l.1.917Q40.544,49.37,41.342,49.621Zm-1.858-.659-.1-.9q-.641-.224-1.269-.478v.8Q38.792,48.687,39.484,48.961Zm-1.635-.711v-.78A27,27,0,0,1,29.1,41.593,26.653,26.653,0,0,0,37.849,48.25Zm-7.9-6.208a26.762,26.762,0,0,0,7.9,5.14V46.94q0-.209.011-.417A27.115,27.115,0,0,1,29.945,42.042Zm8.18,4.575q-.007.161-.007.323v.355q.612.251,1.238.473l-.083-.776Q38.694,46.817,38.125,46.617Zm1.118.088q-.555-.17-1.1-.363a8.012,8.012,0,0,1,2.12-4.841,8.219,8.219,0,0,0-1.044,4.963Zm.31.368.085.791q.7.24,1.42.442l-.192-.888Q40.2,47.262,39.552,47.073Zm1.251.059q-.645-.156-1.281-.343l-.038-.353a7.974,7.974,0,0,1,1.551-5.628,8.2,8.2,0,0,0-.509,5.042Zm.29.068q.724.167,1.459.294l-.791-2.387a8.2,8.2,0,0,1-.031-5.065,7.955,7.955,0,0,0-.942,5.754Zm-.218-19.893a26.827,26.827,0,0,0-10.907-6.279v1.478a8.271,8.271,0,0,1-2.494,5.9l-.115.113q-.2.3-.436.577l-.1.125q-.171.315-.371.617l-.09.137q-.137.33-.3.65l-.074.143q-.1.343-.232.68l-.058.15q-.064.352-.159.7l-.042.157q-.026.355-.083.711-.013.08-.025.16.012.356-.007.715c0,.053-.006.107-.008.16q.05.354.07.714c0,.053.006.105.009.158q.088.348.146.705l.026.156q.125.337.22.686l.043.155q.159.321.291.657l.06.151q.192.3.358.622l.074.141q.224.282.425.585l.089.133q.253.258.485.538l.1.123q.28.231.54.486a26.772,26.772,0,0,0,9.573,6.03,8.284,8.284,0,0,1,2.464-5.214q.507-.5.984-1.018.313-.391.609-.792.268-.419.519-.847.225-.45.432-.906.174-.467.33-.939.123-.481.228-.965.072-.493.124-.987.019-.5.018-1-.035-.5-.088-1-.087-.491-.193-.977-.138-.476-.294-.944-.188-.46-.393-.911-.24-.445-.5-.879-.283-.413-.581-.814Q41.214,27.677,40.875,27.308ZM28.307,41.058a26.547,26.547,0,0,0,9.542,8.393v-.908A26.9,26.9,0,0,1,28.307,41.058ZM39.83,25.594a26.653,26.653,0,0,0-9.862-7.485v.8A27,27,0,0,1,39.83,25.594ZM39.4,62.74a9.549,9.549,0,0,0,1.329.343,9.09,9.09,0,0,1-1.144.634,9.292,9.292,0,0,1-1.294-.187A9.3,9.3,0,0,0,39.4,62.74ZM12.185,13.749a9.538,9.538,0,0,0-1.281.489,8.8,8.8,0,0,1,.545-1.172,9.2,9.2,0,0,1,1.159-.6A9.014,9.014,0,0,0,12.185,13.749ZM63.638,43.59q-.148.249-.311.488-.027.289-.072.58A8.746,8.746,0,0,0,63.638,43.59Zm-.86,2.007q.064-.233.116-.472.065-.3.109-.6a9.27,9.27,0,0,1-.747.852,8.98,8.98,0,0,1-.084,1.127A8.915,8.915,0,0,0,62.778,45.6Zm-.948,1.325a8.718,8.718,0,0,0,.149-1.281,9.386,9.386,0,0,1-1.064.853,8.96,8.96,0,0,1,0,1.344A9.028,9.028,0,0,0,61.83,46.921Zm-.951,1.3a9.334,9.334,0,0,0,.833-.77q-.076.295-.173.588-.077.232-.166.458a8.929,8.929,0,0,1-.7.835A8.967,8.967,0,0,0,60.879,48.217Zm-.255-.135a8.711,8.711,0,0,0,.034-1.416,9.4,9.4,0,0,1-1.356.72,9.047,9.047,0,0,1,.129,1.5A9.15,9.15,0,0,0,60.624,48.081Zm-1.2,1.112a9.431,9.431,0,0,0,1.149-.739,8.763,8.763,0,0,1-.285,1.258,9.113,9.113,0,0,1-1.008.819A8.973,8.973,0,0,0,59.427,49.194Zm-.265-.159a8.776,8.776,0,0,0-.114-1.544,9.433,9.433,0,0,1-1.656.486,9.09,9.09,0,0,1,.314,1.668A9.173,9.173,0,0,0,59.162,49.035Zm-1.435.881a9.466,9.466,0,0,0,1.425-.578,8.729,8.729,0,0,1-.185,1.4,9.207,9.207,0,0,1-1.273.68A9.029,9.029,0,0,0,57.727,49.916Zm-.284-.191a8.822,8.822,0,0,0-.317-1.7,9.6,9.6,0,0,1-1.587.131H55.1a9.062,9.062,0,0,1,.61,1.891A9.2,9.2,0,0,0,57.443,49.725Zm-1.679.583a9.444,9.444,0,0,0,1.7-.314,8.785,8.785,0,0,1-.051,1.548A9.211,9.211,0,0,1,55.9,52,9.068,9.068,0,0,0,55.763,50.308Zm-.32-.24a8.793,8.793,0,0,0-.635-1.911H52.471a9.042,9.042,0,0,1,.9,1.82l.556.057A9.34,9.34,0,0,0,55.444,50.068Zm-1.974.185.433.045a9.618,9.618,0,0,0,1.592.032,8.821,8.821,0,0,1,.134,1.723,9.206,9.206,0,0,1-1.753.144A9.021,9.021,0,0,0,53.469,50.252Zm-.392-.306a8.8,8.8,0,0,0-.926-1.79H49.664l.363.491A9.248,9.248,0,0,1,50.7,49.7Zm-2.226.036,2.325.24a8.768,8.768,0,0,1,.427,1.966A9.341,9.341,0,0,1,52.1,52l-.546-.114A9,9,0,0,0,50.851,49.983Zm-.474-.314a9.019,9.019,0,0,0-.568-.866l-.478-.646H47.155l.739,1.255Zm-2.317.026,2.473.255a8.76,8.76,0,0,1,.73,1.875l-2.334-.487a9.191,9.191,0,0,0-.56-1.118Zm-.5-.317-.72-1.223q-.955-.012-1.9-.09l.5,1.094.192.02Zm-2,.059.037,0,2.128.219.407.691a8.934,8.934,0,0,1,.472.919l-2.443-.509Zm.736,1.622.251.554a9.151,9.151,0,0,1,.438,1.17l2.27.724a8.722,8.722,0,0,0-.527-1.94Zm2.746.573a8.976,8.976,0,0,1,.5,1.965l.53.169a9.314,9.314,0,0,0,1.474.341,8.747,8.747,0,0,0-.215-2Zm2.575.537a9.017,9.017,0,0,1,.2,1.974,9.209,9.209,0,0,0,1.759.037,8.822,8.822,0,0,0,.051-1.727,9.594,9.594,0,0,1-1.58-.2Zm2.275.291a9.072,9.072,0,0,1-.046,1.7,9.257,9.257,0,0,0,1.553-.3,8.792,8.792,0,0,0,.215-1.534A9.475,9.475,0,0,1,53.9,52.46Zm1.994-.189a9.046,9.046,0,0,1-.192,1.5,9.238,9.238,0,0,0,1.338-.546,8.742,8.742,0,0,0,.333-1.378A9.5,9.5,0,0,1,55.89,52.27Zm1.768-.543a8.994,8.994,0,0,1-.285,1.315,9.164,9.164,0,0,0,1.09-.711,8.77,8.77,0,0,0,.417-1.222A9.491,9.491,0,0,1,57.658,51.727Zm1.549-.823a8.98,8.98,0,0,1-.32,1.085,9.012,9.012,0,0,0,.784-.761q.111-.214.212-.436.128-.282.235-.568A9.381,9.381,0,0,1,59.207,50.9Zm1.321-1.049q-.087.277-.193.551a8.813,8.813,0,0,0,.6-.964Q60.738,49.655,60.528,49.855Zm-1.394,2.272q-.219.192-.45.37-.116.267-.251.53A8.88,8.88,0,0,0,59.134,52.126Zm-1.45,1.649q.134-.2.258-.413.158-.268.294-.542a9.452,9.452,0,0,1-.979.584,9.025,9.025,0,0,1-.435,1.047A9.035,9.035,0,0,0,57.684,53.776Zm-1.319.973a8.793,8.793,0,0,0,.546-1.173,9.538,9.538,0,0,1-1.282.489,9.035,9.035,0,0,1-.424,1.279A9.231,9.231,0,0,0,56.364,54.749Zm-1.314.944a9.48,9.48,0,0,0,1.036-.48q-.165.258-.35.507-.146.2-.3.385a9.1,9.1,0,0,1-.928.584A9.07,9.07,0,0,0,55.051,55.693Zm-.2-.206a8.766,8.766,0,0,0,.478-1.337,9.531,9.531,0,0,1-1.516.274,9.078,9.078,0,0,1-.35,1.468A9.293,9.293,0,0,0,54.851,55.487Zm-1.489.7a9.558,9.558,0,0,0,1.326-.355,8.84,8.84,0,0,1-.668,1.111,9.249,9.249,0,0,1-1.216.473A9.07,9.07,0,0,0,53.362,56.182Zm-.2-.231a8.8,8.8,0,0,0,.378-1.5,9.468,9.468,0,0,1-1.727-.039,9.075,9.075,0,0,1-.227,1.681A9.252,9.252,0,0,0,53.159,55.951Zm-1.641.4a9.534,9.534,0,0,0,1.537-.117,8.8,8.8,0,0,1-.618,1.281,9.3,9.3,0,0,1-1.423.261A9.086,9.086,0,0,0,51.518,56.353Zm-.21-.267a8.822,8.822,0,0,0,.234-1.712,9.579,9.579,0,0,1-1.551-.356l-.413-.132a9,9,0,0,1-.015,1.983A9.206,9.206,0,0,0,51.308,56.085Zm-1.78.046a9.474,9.474,0,0,0,1.713.216,8.83,8.83,0,0,1-.536,1.457,9.261,9.261,0,0,1-1.582-.024A9.1,9.1,0,0,0,49.528,56.131Zm-.228-.325a8.749,8.749,0,0,0,0-2.01l-2.224-.709a8.961,8.961,0,0,1,.286,2.005l.509.223A9.288,9.288,0,0,0,49.3,55.806Zm-1.936-.423.4.173a9.553,9.553,0,0,0,1.5.513,8.837,8.837,0,0,1-.415,1.679,9.188,9.188,0,0,1-1.713-.395A9.013,9.013,0,0,0,47.364,55.383Zm-.29,2.228a9.133,9.133,0,0,1-.578,1.6,9.26,9.26,0,0,0,1.571.186A8.863,8.863,0,0,0,48.756,58,9.447,9.447,0,0,1,47.074,57.611Zm1.956.424a9.139,9.139,0,0,1-.654,1.365,9.323,9.323,0,0,0,1.443-.114,8.83,8.83,0,0,0,.751-1.21A9.538,9.538,0,0,1,49.03,58.036Zm1.852.019a9.11,9.11,0,0,1-.685,1.164,9.272,9.272,0,0,0,1.259-.345,8.881,8.881,0,0,0,.782-1.036A9.576,9.576,0,0,1,50.882,58.055Zm1.731-.313a9.133,9.133,0,0,1-.647.935,9.126,9.126,0,0,0,.985-.485q.174-.17.341-.352.21-.229.4-.468A9.551,9.551,0,0,1,52.614,57.742Zm1.587-.6q-.17.238-.358.467a9,9,0,0,0,.877-.737Q54.464,57.018,54.2,57.145Zm-2.043,1.738q-.269.116-.544.215-.195.219-.406.428A9.072,9.072,0,0,0,52.158,58.883Zm-1.9,1.128q.191-.152.376-.315.234-.206.45-.425a9.6,9.6,0,0,1-1.114.258,9.16,9.16,0,0,1-.743.863A9.167,9.167,0,0,0,50.26,60.011Zm-1.56.525a8.942,8.942,0,0,0,.888-.95,9.594,9.594,0,0,1-1.372.077,9.147,9.147,0,0,1-.806,1.088A9.327,9.327,0,0,0,48.7,60.536Zm-1.546.5a9.615,9.615,0,0,0,1.136-.142q-.238.195-.493.377-.2.143-.407.274a9.21,9.21,0,0,1-1.066.274A9.237,9.237,0,0,0,47.154,61.036Zm-.126-.257a8.889,8.889,0,0,0,.876-1.126,9.513,9.513,0,0,1-1.528-.2,9.177,9.177,0,0,1-.8,1.29A9.338,9.338,0,0,0,47.029,60.779Zm-1.635.21a9.583,9.583,0,0,0,1.373.064,8.985,8.985,0,0,1-.984.854,9.322,9.322,0,0,1-1.306.081A9.2,9.2,0,0,0,45.394,60.989Zm-1.2,1.256a9.275,9.275,0,0,1-.91.693,9.241,9.241,0,0,0,1.09-.163q.219-.109.435-.231.273-.154.53-.324A9.6,9.6,0,0,1,44.191,62.246Zm1.7-.087q-.237.174-.487.336a9.142,9.142,0,0,0,1.065-.435Q46.179,62.118,45.889,62.159ZM43.4,63.193q-.293.029-.586.04-.254.149-.52.284A9.192,9.192,0,0,0,43.4,63.193Zm4.986-2.034q.232-.186.449-.383.284-.07.564-.158A9.078,9.078,0,0,1,48.384,61.159Zm7.875-5.721q.162-.248.307-.5.249-.153.488-.322A8.928,8.928,0,0,1,56.259,55.438Zm5.688-7.83q.076-.284.133-.57.188-.221.362-.454A8.794,8.794,0,0,1,61.948,47.608ZM33.709,64.636q-.287-.061-.569-.14-.288.065-.584.112A9.218,9.218,0,0,0,33.709,64.636ZM31.5,64.455q.245-.012.493-.038.313-.032.618-.085a9.523,9.523,0,0,1-1.056-.434,9.459,9.459,0,0,1-1.118.27A9.222,9.222,0,0,0,31.5,64.455ZM29.92,63.98a9.2,9.2,0,0,0,1.287-.256,9.2,9.2,0,0,1-4.431-5.232L24.2,50.705a25.982,25.982,0,0,1-.939-12.612q-.2-.023-.394-.037a25.711,25.711,0,0,0-.14,11.506l1.735,8.009A8.963,8.963,0,0,0,29.92,63.98ZM22.592,38.042a25.969,25.969,0,0,0-.13,11.575L24.2,57.626a9.211,9.211,0,0,0,5.177,6.406q-.309.02-.624.021-.249,0-.494-.013a8.97,8.97,0,0,1-6.266-7.567l-.872-8.143a25.723,25.723,0,0,1,.988-10.294h.18Q22.439,38.036,22.592,38.042Zm.337-.245q.189.014.376.036.065-.353.14-.705-.155-.046-.312-.087Q23.025,37.417,22.929,37.8Zm-.058-.818q-.114.4-.215.8-.185-.008-.371-.008h-.1q.14-.438.295-.871Q22.679,36.936,22.872,36.978Zm.335-.191q.148.038.294.081.068-.306.144-.611-.118-.058-.239-.113Q23.3,36.465,23.207,36.787Zm-.047-.75q-.112.342-.214.687-.184-.041-.37-.075.136-.367.283-.731Q23.01,35.975,23.159,36.037Zm.331-.145q.111.05.221.1.069-.266.144-.532-.086-.061-.173-.12Q23.583,35.616,23.491,35.892Zm-.039-.7q-.108.3-.208.593-.141-.058-.285-.111.13-.311.267-.619Q23.34,35.123,23.452,35.193Zm.325-.106.157.107q.068-.232.14-.462l-.117-.113Q23.865,34.852,23.777,35.087Zm-.031-.662q-.1.256-.2.514-.1-.064-.21-.126.122-.265.249-.527Q23.667,34.355,23.746,34.424Zm.318-.071.1.095q.065-.2.134-.4l-.069-.092Q24.145,34.155,24.064,34.353Zm-.023-.634q-.1.222-.189.445l-.145-.123q.112-.225.229-.447Zm-.294-.34q-.071-.078-.145-.154-.155.247-.3.5.1.072.2.146Q23.617,33.624,23.746,33.38Zm-.374.734q-.1-.081-.21-.159-.17.292-.332.588.137.068.271.14Q23.233,34.4,23.372,34.113Zm-.381.81q-.142-.077-.287-.148-.185.346-.359.7.182.052.361.112Q22.844,35.253,22.991,34.924Zm-.387.906q-.187-.062-.378-.116-.2.415-.386.836l.1.01q.185.019.368.046Q22.449,36.216,22.6,35.83Zm-.391,1.029q-.152-.021-.3-.037l-.178-.018q-.205.481-.391.969h.568Q22.052,37.313,22.214,36.859Zm-.388,1.177H21.24a25.752,25.752,0,0,0-1.589,8.9v8.188a8.979,8.979,0,0,0,7.55,8.8A9.2,9.2,0,0,1,21.723,56.5l-.872-8.143A25.979,25.979,0,0,1,21.825,38.036Zm-.773-.264q.189-.5.4-1l-9.5-.979a9.247,9.247,0,0,1-8.379-9.569,8.767,8.767,0,0,0-.4,2.62,9.014,9.014,0,0,0,9.1,8.926ZM3.948,25.244q-.039.238-.065.48a8.97,8.97,0,0,0,8.1,9.81l9.579.988q.193-.442.4-.877-.148-.037-.3-.068l-9.792-2.042a9.229,9.229,0,0,1-7.418-9.252A8.826,8.826,0,0,0,3.948,25.244Zm.8-1.415a8.953,8.953,0,0,0,7.179,9.448l9.792,2.042q.182.038.361.083.184-.373.38-.741a8.316,8.316,0,0,0-.909-.349l-9.521-3.035a9.217,9.217,0,0,1-6.471-8.454A8.986,8.986,0,0,0,4.749,23.829Zm.808-1.387a9.3,9.3,0,0,0-.747.852q.044-.3.109-.6.052-.239.116-.471a8.9,8.9,0,0,1,.606-.9A8.96,8.96,0,0,0,5.557,22.442Zm.268.108a8.947,8.947,0,0,0,6.29,8.475l9.521,3.035a8.6,8.6,0,0,1,.952.367q.173-.316.355-.629a8.289,8.289,0,0,0-1.365-.756l-9.145-3.994a9.2,9.2,0,0,1-5.507-7.423A9.117,9.117,0,0,0,5.826,22.551ZM6.9,21.321a9.38,9.38,0,0,0-1.065.854,8.72,8.72,0,0,1,.149-1.281,9.05,9.05,0,0,1,.916-.918A8.964,8.964,0,0,0,6.9,21.321Zm.281.131a8.934,8.934,0,0,0,5.363,7.356L21.688,32.8a8.57,8.57,0,0,1,1.39.768q.161-.271.33-.538a8.224,8.224,0,0,0-1.67-1.248l-8.669-4.91A9.177,9.177,0,0,1,8.562,20.7,9.126,9.126,0,0,0,7.179,21.451Zm1.333-1.023a9.408,9.408,0,0,0-1.356.72,8.7,8.7,0,0,1,.034-1.417,9.157,9.157,0,0,1,1.193-.807A9.041,9.041,0,0,0,8.512,20.429ZM8.388,18.62a8.973,8.973,0,0,1,.143-1.338,9.1,9.1,0,0,0-1.008.819,8.736,8.736,0,0,0-.285,1.259A9.435,9.435,0,0,1,8.388,18.62ZM6.935,19.6a8.969,8.969,0,0,1,.2-1.113,8.949,8.949,0,0,0-.7.838q-.088.225-.165.457-.1.294-.173.589A9.348,9.348,0,0,1,6.935,19.6Zm-1.2,1.18q.057-.285.133-.569A8.789,8.789,0,0,0,5.37,21.23Q5.544,21,5.732,20.777Zm1.145-2.4q.2-.214.409-.415.087-.278.194-.554A8.839,8.839,0,0,0,6.877,18.374Zm1.268-1.79q-.112.216-.214.44Q7.8,17.3,7.7,17.59a9.4,9.4,0,0,1,.911-.681,8.99,8.99,0,0,1,.321-1.086A8.971,8.971,0,0,0,8.145,16.584Zm.987-1.268q.116-.267.251-.529a8.885,8.885,0,0,0-.7.9Q8.9,15.493,9.132,15.316ZM4.559,23.158q-.046.291-.072.58-.163.239-.312.489A8.755,8.755,0,0,1,4.559,23.158ZM29.291,64.3q.3-.017.593-.052.272.107.551.2A9.2,9.2,0,0,1,29.291,64.3ZM15.655,8.932q.269-.116.545-.216.195-.219.406-.428A9.042,9.042,0,0,0,15.655,8.932Zm1.9-1.129q-.191.151-.376.315-.234.207-.45.425a9.571,9.571,0,0,1,1.115-.258,9.167,9.167,0,0,1,.743-.864A9.176,9.176,0,0,0,17.553,7.8Zm1.429-.765q.217-.2.45-.384a9.083,9.083,0,0,0-1.015.543Q18.7,7.109,18.982,7.039Zm.133.24a8.953,8.953,0,0,0-.888.95A9.593,9.593,0,0,1,19.6,8.152,9.147,9.147,0,0,1,20.4,7.064,9.3,9.3,0,0,0,19.114,7.278Zm1.672-.243a8.9,8.9,0,0,0-.876,1.126,9.516,9.516,0,0,1,1.529.2,9.178,9.178,0,0,1,.8-1.29A9.326,9.326,0,0,0,20.786,7.035Zm1.755.072a8.927,8.927,0,0,0-.833,1.316,9.419,9.419,0,0,1,1.631.561,9.164,9.164,0,0,1,.745-1.53A9.232,9.232,0,0,0,22.541,7.107Zm1.8.433A8.908,8.908,0,0,0,23.583,9.1a9.474,9.474,0,0,1,1.362.808l.353.252a9.053,9.053,0,0,1,.639-1.882A9.114,9.114,0,0,0,24.345,7.54Zm1.823.876a8.787,8.787,0,0,0-.631,1.912l1.892,1.348a8.965,8.965,0,0,1,.359-1.994l-.417-.368A9.153,9.153,0,0,0,26.168,8.416ZM28.01,9.879a8.706,8.706,0,0,0-.323,1.982L29.7,13.295v-.608a9.094,9.094,0,0,1,.085-1.241Zm-.42-6.07q.294,0,.587.02.269-.122.548-.229A9.194,9.194,0,0,0,27.59,3.809Z" transform="translate(-147 268)" fill="#fff" fill-rule="evenodd"/>
  </g>
</svg>
