<svg xmlns="http://www.w3.org/2000/svg" xmlns:xlink="http://www.w3.org/1999/xlink" width="55" height="55" viewBox="0 0 55 55">
  <defs>
    <linearGradient id="linear-gradient" x1="0.5" x2="0.5" y2="1" gradientUnits="objectBoundingBox">
      <stop offset="0" stop-color="#ffd579"/>
      <stop offset="1" stop-color="#806b3d"/>
    </linearGradient>
  </defs>
  <g id="Group_146" data-name="Group 146" transform="translate(-1360 -390)">
    <rect id="Rectangle_52" data-name="Rectangle 52" width="55" height="55" rx="27.5" transform="translate(1360 390)" fill="url(#linear-gradient)"/>
    <g id="_9202055871536669841" data-name="9202055871536669841" transform="translate(1370.623 391.282)">
      <path id="Path_69" data-name="Path 69" d="M9.035,22.95H37.884a.553.553,0,0,0,.554-.554c0-4.97-4.374-9.014-9.75-9.014H18.232c-5.377,0-9.751,4.043-9.751,9.014A.553.553,0,0,0,9.035,22.95Zm9.2-8.459H28.688c4.562,0,8.31,3.251,8.622,7.352H9.609C9.921,17.741,13.669,14.491,18.232,14.491Z" transform="translate(-6.855 5)"/>
      <path id="Path_71" data-name="Path 71" d="M11.192,49.564H39.139a2.712,2.712,0,0,0,0-5.423H11.192a2.712,2.712,0,1,0,0,5.423Zm0-4.2H39.139a1.485,1.485,0,0,1,0,2.97H11.192a1.485,1.485,0,1,1,0-2.97Z" transform="translate(-8.288 -17.512)"/>
      <path id="Path_72" data-name="Path 72" d="M42.378,26.571a.553.553,0,0,0-.554.554v.67a.554.554,0,1,0,1.108,0v-.67A.554.554,0,0,0,42.378,26.571Z" transform="translate(-27.889 -3.319)"/>
      <path id="Path_73" data-name="Path 73" d="M67.825,26.571a.553.553,0,0,0-.554.554v.67a.554.554,0,0,0,1.108,0v-.67A.554.554,0,0,0,67.825,26.571Z" transform="translate(-43.942 -3.319)"/>
      <path id="Path_74" data-name="Path 74" d="M29.434,22.614a.553.553,0,0,0-.554.554v.67a.554.554,0,0,0,1.108,0v-.67A.553.553,0,0,0,29.434,22.614Z" transform="translate(-19.723 -0.823)"/>
      <path id="Path_75" data-name="Path 75" d="M56.063,22.614a.553.553,0,0,0-.554.554v.67a.554.554,0,0,0,1.108,0v-.67A.553.553,0,0,0,56.063,22.614Z" transform="translate(-36.522 -0.823)"/>
    </g>
  </g>
</svg>
