<svg xmlns="http://www.w3.org/2000/svg" xmlns:xlink="http://www.w3.org/1999/xlink" width="55" height="55" viewBox="0 0 55 55">
  <defs>
    <linearGradient id="linear-gradient" x1="0.5" x2="0.5" y2="1" gradientUnits="objectBoundingBox">
      <stop offset="0" stop-color="#87c285"/>
      <stop offset="1" stop-color="#446143"/>
    </linearGradient>
  </defs>
  <g id="Group_147" data-name="Group 147" transform="translate(-1360 -520)">
    <rect id="Rectangle_53" data-name="Rectangle 53" width="55" height="55" rx="27.5" transform="translate(1360 520)" fill="url(#linear-gradient)"/>
    <g id="_9202055871536669841" data-name="9202055871536669841" transform="translate(1370.81 517.335)">
      <path id="Path_69" data-name="Path 69" d="M9.035,22.95H37.884a.553.553,0,0,0,.554-.554c0-4.97-4.374-9.014-9.75-9.014H18.232c-5.377,0-9.751,4.043-9.751,9.014A.553.553,0,0,0,9.035,22.95Zm9.2-8.459H28.688c4.562,0,8.31,3.251,8.622,7.352H9.609C9.921,17.741,13.669,14.491,18.232,14.491Z" transform="translate(-6.855 5)"/>
      <path id="Path_70" data-name="Path 70" d="M37.884,61.3H9.035a.553.553,0,0,0-.554.554c0,4.971,4.374,9.015,9.751,9.015H28.688c5.376,0,9.75-4.044,9.75-9.015A.553.553,0,0,0,37.884,61.3Zm-9.2,8.461H18.232c-4.563,0-8.311-3.251-8.622-7.353h27.7C37,66.506,33.25,69.757,28.688,69.757Z" transform="translate(-6.855 -28.917)"/>
      <path id="Path_71" data-name="Path 71" d="M11.58,50.341H43.531a3.1,3.1,0,0,0,0-6.2H11.58a3.1,3.1,0,1,0,0,6.2Zm0-4.8H43.531a1.7,1.7,0,0,1,0,3.4H11.58a1.7,1.7,0,1,1,0-3.4Z" transform="translate(-10.865 -16.901)"/>
      <path id="Path_72" data-name="Path 72" d="M42.378,26.571a.553.553,0,0,0-.554.554v.67a.554.554,0,1,0,1.108,0v-.67A.554.554,0,0,0,42.378,26.571Z" transform="translate(-27.889 -3.319)"/>
      <path id="Path_73" data-name="Path 73" d="M67.825,26.571a.553.553,0,0,0-.554.554v.67a.554.554,0,0,0,1.108,0v-.67A.554.554,0,0,0,67.825,26.571Z" transform="translate(-43.942 -3.319)"/>
      <path id="Path_74" data-name="Path 74" d="M29.434,22.614a.553.553,0,0,0-.554.554v.67a.554.554,0,0,0,1.108,0v-.67A.553.553,0,0,0,29.434,22.614Z" transform="translate(-19.723 -0.823)"/>
      <path id="Path_75" data-name="Path 75" d="M56.063,22.614a.553.553,0,0,0-.554.554v.67a.554.554,0,0,0,1.108,0v-.67A.553.553,0,0,0,56.063,22.614Z" transform="translate(-36.522 -0.823)"/>
    </g>
  </g>
</svg>
