<svg xmlns="http://www.w3.org/2000/svg" width="32.018" height="32" viewBox="0 0 32.018 32">
  <g id="_16945449851552644365" data-name="16945449851552644365" transform="translate(-2.965 -2)">
    <circle id="XMLID_224_" cx="4" cy="4" r="4" transform="translate(14.973 14)" fill="none" stroke="#9b9292" stroke-linecap="round" stroke-linejoin="round" stroke-miterlimit="10" stroke-width="2"/>
    <path id="XMLID_242_" d="M33.639,11.5l-1.247-2a2.607,2.607,0,0,0-3.407-.845l-.656.351c-2.494,1.332-5.613-.333-5.613-3v-.7A2.406,2.406,0,0,0,20.221,3H17.726a2.406,2.406,0,0,0-2.494,2.308v.7c0,2.664-3.118,4.33-5.613,3l-.656-.351A2.607,2.607,0,0,0,5.556,9.5l-1.247,2a2.216,2.216,0,0,0,.913,3.152L5.877,15a3.337,3.337,0,0,1,0,6l-.656.351A2.216,2.216,0,0,0,4.308,24.5l1.247,2a2.607,2.607,0,0,0,3.407.845l.656-.351c2.494-1.333,5.613.333,5.613,3v.7A2.406,2.406,0,0,0,17.726,33h2.494a2.406,2.406,0,0,0,2.494-2.308v-.7c0-2.664,3.118-4.33,5.613-3l.656.351a2.607,2.607,0,0,0,3.407-.845l1.247-2a2.216,2.216,0,0,0-.913-3.152L32.07,21a3.337,3.337,0,0,1,0-6l.656-.351A2.215,2.215,0,0,0,33.639,11.5Z" transform="translate(0 0)" fill="none" stroke="#9b9292" stroke-linecap="round" stroke-linejoin="round" stroke-miterlimit="10" stroke-width="2"/>
  </g>
</svg>
